<svg width="135" height="130" viewBox="0 0 135 130" fill="none" xmlns="http://www.w3.org/2000/svg">
<g filter="url(#filter0_d_191_250)">
<path d="M132.36 62.9332L98.3672 70.6426L123.668 93.1389L90.0891 83.9641L99.9467 115.224L75.7809 91.6679L67.5001 123.314L59.2192 91.6679L35.0534 115.224L44.911 83.9613L11.3292 93.1389L36.6329 70.6426L2.64026 62.9332L36.6329 55.2237L11.3292 32.7274L44.911 41.905L35.0534 10.642L59.2192 34.1984L67.5001 2.55273L75.7809 34.1984L99.9467 10.642L90.0891 41.905L123.671 32.7274L98.3672 55.2237L132.36 62.9332Z" fill="#A050A0"/>
<path d="M132.36 62.9332L98.3672 70.6426L123.668 93.1389L90.0891 83.9641L99.9467 115.224L75.7809 91.6679L67.5001 123.314L59.2192 91.6679L35.0534 115.224L44.911 83.9613L11.3292 93.1389L36.6329 70.6426L2.64026 62.9332L36.6329 55.2237L11.3292 32.7274L44.911 41.905L35.0534 10.642L59.2192 34.1984L67.5001 2.55273L75.7809 34.1984L99.9467 10.642L90.0891 41.905L123.671 32.7274L98.3672 55.2237L132.36 62.9332Z" stroke="#282828" stroke-miterlimit="10"/>
</g>
<path d="M60.2151 53.5455V71H56.5247V57.0483H56.4225L52.4253 59.554V56.2812L56.7463 53.5455H60.2151ZM74.8097 61.642L71.4858 61.8466C71.429 61.5625 71.3068 61.3068 71.1193 61.0795C70.9318 60.8466 70.6847 60.6619 70.3778 60.5256C70.0767 60.3835 69.7159 60.3125 69.2955 60.3125C68.733 60.3125 68.2585 60.4318 67.8722 60.6705C67.4858 60.9034 67.2926 61.2159 67.2926 61.608C67.2926 61.9205 67.4176 62.1847 67.6676 62.4006C67.9176 62.6165 68.3466 62.7898 68.9545 62.9205L71.3239 63.3977C72.5966 63.6591 73.5455 64.0795 74.1705 64.6591C74.7955 65.2386 75.108 66 75.108 66.9432C75.108 67.8011 74.8551 68.554 74.3494 69.2017C73.8494 69.8494 73.1619 70.3551 72.2869 70.7188C71.4176 71.0767 70.4148 71.2557 69.2784 71.2557C67.5455 71.2557 66.1648 70.8949 65.1364 70.1733C64.1136 69.446 63.5142 68.4574 63.3381 67.2074L66.9091 67.0199C67.017 67.5483 67.2784 67.9517 67.6932 68.2301C68.108 68.5028 68.6392 68.6392 69.2869 68.6392C69.9233 68.6392 70.4347 68.517 70.821 68.2727C71.2131 68.0227 71.4119 67.7017 71.4176 67.3097C71.4119 66.9801 71.2727 66.7102 71 66.5C70.7273 66.2841 70.3068 66.1193 69.7386 66.0057L67.4716 65.554C66.1932 65.2983 65.2415 64.8551 64.6165 64.2244C63.9972 63.5937 63.6875 62.7898 63.6875 61.8125C63.6875 60.9716 63.9148 60.2472 64.3693 59.6392C64.8295 59.0312 65.4744 58.5625 66.304 58.233C67.1392 57.9034 68.1165 57.7386 69.2358 57.7386C70.8892 57.7386 72.1903 58.0881 73.1392 58.7869C74.0938 59.4858 74.6506 60.4375 74.8097 61.642ZM83.8772 57.9091V60.6364H75.9937V57.9091H83.8772ZM77.7835 54.7727H81.4142V66.9773C81.4142 67.3125 81.4653 67.5739 81.5676 67.7614C81.6699 67.9432 81.8119 68.071 81.9937 68.1449C82.1812 68.2187 82.3971 68.2557 82.6414 68.2557C82.8119 68.2557 82.9824 68.2415 83.1528 68.2131C83.3233 68.179 83.4539 68.1534 83.5449 68.1364L84.1159 70.8381C83.9341 70.8949 83.6784 70.9602 83.3488 71.0341C83.0193 71.1136 82.6187 71.1619 82.1471 71.179C81.2721 71.2131 80.5051 71.0966 79.846 70.8295C79.1926 70.5625 78.6841 70.1477 78.3204 69.5852C77.9568 69.0227 77.7778 68.3125 77.7835 67.4545V54.7727Z" fill="white"/>
<defs>
<filter id="filter0_d_191_250" x="0.379639" y="0.577637" width="134.241" height="128.711" filterUnits="userSpaceOnUse" color-interpolation-filters="sRGB">
<feFlood flood-opacity="0" result="BackgroundImageFix"/>
<feColorMatrix in="SourceAlpha" type="matrix" values="0 0 0 0 0 0 0 0 0 0 0 0 0 0 0 0 0 0 127 0" result="hardAlpha"/>
<feOffset dy="4"/>
<feColorMatrix type="matrix" values="0 0 0 0 0.141176 0 0 0 0 0.141176 0 0 0 0 0.141176 0 0 0 1 0"/>
<feBlend mode="normal" in2="BackgroundImageFix" result="effect1_dropShadow_191_250"/>
<feBlend mode="normal" in="SourceGraphic" in2="effect1_dropShadow_191_250" result="shape"/>
</filter>
</defs>
</svg>
