<svg width="137" height="137" viewBox="0 0 137 137" fill="none" xmlns="http://www.w3.org/2000/svg">
<g filter="url(#filter0_d_44_131)">
<path d="M99.326 36.6484L97.3222 54.0367C96.9461 57.2968 98.194 60.525 100.66 62.6706L113.811 74.116C120.018 79.5191 117.315 89.7364 109.238 91.4082L92.1249 94.95C88.9161 95.6139 86.2347 97.8156 84.9492 100.837L78.091 116.957C74.853 124.567 64.3322 125.193 60.2871 118.02L51.7139 102.82C50.1066 99.9706 47.1992 98.1022 43.9424 97.8253L26.5543 96.3415C18.3463 95.6404 14.5457 85.8101 20.1251 79.705L31.9392 66.7699C34.1533 64.3455 35.0396 60.9901 34.3129 57.7972L30.4189 40.7587C28.5842 32.7171 36.755 26.0134 44.2485 29.415L60.1227 36.6227C63.099 37.9747 66.5538 37.7687 69.3631 36.0723L84.3475 27.026C91.4211 22.7557 100.273 28.4442 99.3244 36.6509L99.326 36.6484Z" fill="#F0C800"/>
<path d="M99.326 36.6484L97.3222 54.0367C96.9461 57.2968 98.194 60.525 100.66 62.6706L113.811 74.116C120.018 79.5191 117.315 89.7364 109.238 91.4082L92.1249 94.95C88.9161 95.6139 86.2347 97.8156 84.9492 100.837L78.091 116.957C74.853 124.567 64.3322 125.193 60.2871 118.02L51.7139 102.82C50.1066 99.9706 47.1992 98.1022 43.9424 97.8253L26.5543 96.3415C18.3463 95.6404 14.5457 85.8101 20.1251 79.705L31.9392 66.7699C34.1533 64.3455 35.0396 60.9901 34.3129 57.7972L30.4189 40.7587C28.5842 32.7171 36.755 26.0134 44.2485 29.415L60.1227 36.6227C63.099 37.9747 66.5538 37.7687 69.3631 36.0723L84.3475 27.026C91.4211 22.7557 100.273 28.4442 99.3244 36.6509L99.326 36.6484Z" stroke="#282828" stroke-miterlimit="10"/>
</g>
<defs>
<filter id="filter0_d_44_131" x="16.9866" y="25.0677" width="100.736" height="102.482" filterUnits="userSpaceOnUse" color-interpolation-filters="sRGB">
<feFlood flood-opacity="0" result="BackgroundImageFix"/>
<feColorMatrix in="SourceAlpha" type="matrix" values="0 0 0 0 0 0 0 0 0 0 0 0 0 0 0 0 0 0 127 0" result="hardAlpha"/>
<feOffset dy="4"/>
<feColorMatrix type="matrix" values="0 0 0 0 0.141176 0 0 0 0 0.141176 0 0 0 0 0.141176 0 0 0 1 0"/>
<feBlend mode="normal" in2="BackgroundImageFix" result="effect1_dropShadow_44_131"/>
<feBlend mode="normal" in="SourceGraphic" in2="effect1_dropShadow_44_131" result="shape"/>
</filter>
</defs>
</svg>
