<svg width="120" height="127" viewBox="0 0 120 127" fill="none" xmlns="http://www.w3.org/2000/svg">
<g filter="url(#filter0_d_191_254)">
<path d="M119.483 61.2261C85.1826 75.0239 74.1337 86.2072 60.5019 120.925C46.87 86.2033 35.8212 75.02 1.51733 61.2261C35.8212 47.4284 46.87 36.2451 60.5019 1.52368C74.1337 36.2412 85.1826 47.4245 119.483 61.2223V61.2261Z" fill="#F0A000"/>
<path d="M119.483 61.2261C85.1826 75.0239 74.1337 86.2072 60.5019 120.925C46.87 86.2033 35.8212 75.02 1.51733 61.2261C35.8212 47.4284 46.87 36.2451 60.5019 1.52368C74.1337 36.2412 85.1826 47.4245 119.483 61.2223V61.2261Z" stroke="#282828" stroke-miterlimit="10"/>
</g>
<path d="M39.2424 69V66.3409L45.4555 60.5881C45.9839 60.0767 46.4271 59.6165 46.785 59.2074C47.1487 58.7983 47.4242 58.3977 47.6117 58.0057C47.7992 57.608 47.893 57.179 47.893 56.7188C47.893 56.2074 47.7765 55.767 47.5436 55.3977C47.3106 55.0227 46.9924 54.7358 46.589 54.5369C46.1856 54.3324 45.7282 54.2301 45.2169 54.2301C44.6828 54.2301 44.2169 54.3381 43.8191 54.554C43.4214 54.7699 43.1146 55.0795 42.8987 55.483C42.6828 55.8864 42.5748 56.3665 42.5748 56.9233H39.072C39.072 55.7812 39.3305 54.7898 39.8475 53.9489C40.3646 53.108 41.089 52.4574 42.0208 51.9972C42.9527 51.5369 44.0265 51.3068 45.2424 51.3068C46.4924 51.3068 47.5805 51.5284 48.5066 51.9716C49.4385 52.4091 50.1629 53.017 50.6799 53.7955C51.197 54.5739 51.4555 55.4659 51.4555 56.4716C51.4555 57.1307 51.3248 57.7812 51.0635 58.4233C50.8078 59.0653 50.3504 59.7784 49.6913 60.5625C49.0322 61.3409 48.1032 62.2756 46.9044 63.3665L44.3561 65.8636V65.983H51.6856V69H39.2424ZM57.5444 61.4318V69H53.9137V55.9091H57.3739V58.2188H57.5273C57.8171 57.4574 58.3029 56.8551 58.9847 56.4119C59.6665 55.9631 60.4933 55.7386 61.4648 55.7386C62.3739 55.7386 63.1665 55.9375 63.8427 56.3352C64.5188 56.733 65.0444 57.3011 65.4194 58.0398C65.7944 58.7727 65.9819 59.6477 65.9819 60.6648V69H62.3512V61.3125C62.3569 60.5114 62.1523 59.8864 61.7376 59.4375C61.3228 58.983 60.7518 58.7557 60.0245 58.7557C59.5359 58.7557 59.104 58.8608 58.729 59.071C58.3597 59.2812 58.07 59.5881 57.8597 59.9915C57.6552 60.3892 57.5501 60.8693 57.5444 61.4318ZM73.1873 69.2131C72.1929 69.2131 71.2924 68.9574 70.4856 68.446C69.6844 67.929 69.0481 67.1705 68.5765 66.1705C68.1106 65.1648 67.8776 63.9318 67.8776 62.4716C67.8776 60.9716 68.1191 59.7244 68.602 58.7301C69.085 57.7301 69.727 56.983 70.5282 56.4886C71.335 55.9886 72.2185 55.7386 73.1787 55.7386C73.9117 55.7386 74.5225 55.8636 75.0111 56.1136C75.5054 56.358 75.9032 56.6648 76.2043 57.0341C76.5111 57.3977 76.7441 57.7557 76.9032 58.108H77.014V51.5455H80.6361V69H77.0566V66.9034H76.9032C76.7327 67.267 76.4912 67.6278 76.1787 67.9858C75.8719 68.3381 75.4714 68.6307 74.977 68.8636C74.4884 69.0966 73.8918 69.2131 73.1873 69.2131ZM74.3378 66.3239C74.9231 66.3239 75.4174 66.1648 75.8208 65.8466C76.2299 65.5227 76.5424 65.071 76.7583 64.4915C76.9799 63.9119 77.0907 63.233 77.0907 62.4545C77.0907 61.6761 76.9827 61 76.7668 60.4261C76.5509 59.8523 76.2384 59.4091 75.8293 59.0966C75.4202 58.7841 74.9231 58.6278 74.3378 58.6278C73.7412 58.6278 73.2384 58.7898 72.8293 59.1136C72.4202 59.4375 72.1106 59.8864 71.9003 60.4602C71.6901 61.0341 71.585 61.6989 71.585 62.4545C71.585 63.2159 71.6901 63.8892 71.9003 64.4744C72.1162 65.054 72.4259 65.5085 72.8293 65.8381C73.2384 66.1619 73.7412 66.3239 74.3378 66.3239Z" fill="white"/>
<defs>
<filter id="filter0_d_191_254" x="0.177246" y="0.155518" width="119.805" height="126.137" filterUnits="userSpaceOnUse" color-interpolation-filters="sRGB">
<feFlood flood-opacity="0" result="BackgroundImageFix"/>
<feColorMatrix in="SourceAlpha" type="matrix" values="0 0 0 0 0 0 0 0 0 0 0 0 0 0 0 0 0 0 127 0" result="hardAlpha"/>
<feOffset dy="4"/>
<feColorMatrix type="matrix" values="0 0 0 0 0.141176 0 0 0 0 0.141176 0 0 0 0 0.141176 0 0 0 1 0"/>
<feBlend mode="normal" in2="BackgroundImageFix" result="effect1_dropShadow_191_254"/>
<feBlend mode="normal" in="SourceGraphic" in2="effect1_dropShadow_191_254" result="shape"/>
</filter>
</defs>
</svg>
