<svg width="68" height="68" viewBox="0 0 68 68" fill="none" xmlns="http://www.w3.org/2000/svg">
<path d="M17 18C17.5523 18 18 17.5523 18 17C18 16.4477 17.5523 16 17 16C16.4477 16 16 16.4477 16 17C16 17.5523 16.4477 18 17 18Z" fill="#AFCAFF"/>
<path d="M51 18C51.5523 18 52 17.5523 52 17C52 16.4477 51.5523 16 51 16C50.4477 16 50 16.4477 50 17C50 17.5523 50.4477 18 51 18Z" fill="#AFCAFF"/>
<path d="M17 52C17.5523 52 18 51.5523 18 51C18 50.4477 17.5523 50 17 50C16.4477 50 16 50.4477 16 51C16 51.5523 16.4477 52 17 52Z" fill="#AFCAFF"/>
<path d="M51 52C51.5523 52 52 51.5523 52 51C52 50.4477 51.5523 50 51 50C50.4477 50 50 50.4477 50 51C50 51.5523 50.4477 52 51 52Z" fill="#AFCAFF"/>
</svg>
