<?xml version="1.0" encoding="utf-8"?>
<!-- Generator: Adobe Illustrator 24.3.0, SVG Export Plug-In . SVG Version: 6.00 Build 0)  -->
<svg version="1.0" id="katman_1" xmlns="http://www.w3.org/2000/svg" xmlns:xlink="http://www.w3.org/1999/xlink" x="0px" y="0px"
	 viewBox="0 0 841.89 595.28" style="enable-background:new 0 0 841.89 595.28;" xml:space="preserve">
<style type="text/css">
	.st0{fill:#BD192E;}
</style>
<polygon points="363.77,301.78 328.17,301.78 328.17,270.43 312.4,270.43 312.4,348.14 328.17,348.14 328.17,316.58 363.77,316.58 
	363.77,348.14 379.53,348.14 379.53,270.43 363.77,270.43 "/>
<path d="M452.57,314.91c0,12.64-6.27,19.38-17.66,19.38c-11.45,0-17.77-6.94-17.77-19.92v-43.89h-15.76v44.43
	c0,21.85,12.14,34.39,33.32,34.39c21.38,0,33.63-12.77,33.63-35.04v-43.83h-15.76V314.91z"/>
<polygon points="634.78,323.86 617.14,270.42 604.27,270.42 586.63,323.86 569.47,270.47 552.69,270.47 579.76,348.14 
	592.82,348.14 610.49,297.12 628.15,348.14 641.32,348.14 668.33,270.47 651.98,270.47 "/>
<polygon points="696.6,314.7 725.27,314.7 725.27,300.55 696.6,300.55 696.6,284.64 738.22,284.64 738.22,270.49 681.04,270.49 
	681.04,348.09 739.72,348.09 739.72,333.93 696.6,333.93 "/>
<rect x="758.52" y="270.43" width="15.55" height="77.6"/>
<path d="M510.56,270.43l-34.23,77.66h16.09l7.08-16.18h35.56l6.98,16.18h16.52l-34.11-77.66H510.56z M505.36,317.91l11.88-27.81
	l11.96,27.81H505.36z"/>
<path class="st0" d="M259.14,280.71c1.14-17.6-16.59-33.9-16.59-33.9s-32.86,39.81-56.81,92.08c-0.13,0.27-0.17,0.73,0.11,0.97
	c0.19,0.16,0.55,0.27,0.92,0.09c8.98-4.46,46.3-23.68,62.02-38.67C248.79,301.28,258.62,293.38,259.14,280.71 M217.25,240.98
	c0,0-4.11-15.34-20.78-19.39c0,0-4.8-1.22-9.9-1.94c0,0-18.63,23.99-9.58,114.5c0.05,0.48,0.3,0.65,0.52,0.71
	c0.34,0.09,0.66-0.03,0.89-0.35c5.97-8.63,33.22-49.02,38.75-73.58C217.15,260.92,220.15,249.04,217.25,240.98 M191.71,352.74
	c-0.11,0.2-0.19,0.69,0.19,0.96c6.02,4.32,24.26,17.08,33.06,19.55c0,0,16.25,5.54,30.38-18.72c0,0-47.25-1.65-62.96-2.19
	C192.16,352.34,191.84,352.49,191.71,352.74 M272.07,298.93c0,0-53.45,28.71-81.08,47.33c-0.2,0.14-0.46,0.41-0.32,0.9
	c0.07,0.26,0.32,0.5,0.65,0.5c9.9,0.01,47.35,0.06,48.29-0.12c0,0,4.84-0.19,10.83-2.49c0,0,13.32-4.24,20.24-19.37
	C270.67,325.69,276.84,313.35,272.07,298.93 M152.18,346.26c-27.63-18.62-81.08-47.33-81.08-47.33c-4.77,14.42,1.4,26.76,1.4,26.76
	c6.92,15.13,20.24,19.37,20.24,19.37c5.99,2.29,10.83,2.49,10.83,2.49c0.94,0.18,38.4,0.13,48.29,0.12c0.33,0,0.58-0.24,0.65-0.5
	C152.64,346.67,152.38,346.4,152.18,346.26 M150.79,352.34c-15.71,0.55-62.96,2.19-62.96,2.19c14.12,24.26,30.38,18.72,30.38,18.72
	c8.79-2.48,27.04-15.24,33.05-19.55c0.38-0.27,0.29-0.76,0.19-0.96C151.33,352.49,151,352.34,150.79,352.34 M146.69,221.59
	c-16.67,4.06-20.78,19.39-20.78,19.39c-2.9,8.06,0.1,19.94,0.1,19.94c5.53,24.56,32.77,64.95,38.75,73.58
	c0.22,0.32,0.55,0.44,0.89,0.35c0.22-0.06,0.47-0.23,0.52-0.71c9.06-90.51-9.57-114.5-9.57-114.5
	C151.49,220.37,146.69,221.59,146.69,221.59 M100.61,246.81c0,0-17.72,16.3-16.59,33.9c0.52,12.68,10.35,20.57,10.35,20.57
	c15.72,14.99,53.04,34.22,62.01,38.67c0.37,0.18,0.73,0.07,0.92-0.09c0.28-0.24,0.24-0.7,0.11-0.97
	C133.46,286.61,100.61,246.81,100.61,246.81"/>
</svg>
