<?xml version="1.0" encoding="utf-8"?>
<!-- Generator: Adobe Illustrator 26.1.0, SVG Export Plug-In . SVG Version: 6.00 Build 0)  -->
<svg version="1.1" id="Layer_1" xmlns="http://www.w3.org/2000/svg" xmlns:xlink="http://www.w3.org/1999/xlink" x="0px" y="0px"
	 viewBox="0 0 742.8 236.5" style="enable-background:new 0 0 742.8 236.5;" xml:space="preserve">
<g>
	<path d="M227.6,118.2C225.4-3.1,64.4-48,2.2,65.1c3,2.2,6.7,5.2,9,6.7C6.7,81.5,3,92,1.5,101.8c-0.7,6.7-1.5,13.5-1.5,21
		c0,62.9,50.9,113.8,113.8,113.8s113.8-50.9,113.8-113.8C227.6,121.2,227.6,119.7,227.6,118.2L227.6,118.2z M28.5,138.4
		c-1.5,12-0.7,16.5-0.7,18l-3,0.7c-0.7-2.2-3.7-9-4.5-18.7c-3-36.7,21.7-69.6,59.9-75.6c35.2-5.2,68.1,16.5,76.4,47.2l-3,0.7
		c-0.7-0.7-2.2-3-7.5-9C104.1,59.1,37.4,78.5,28.5,138.4L28.5,138.4z M136.3,158.7c-6,8.2-15,13.5-25.5,13.5
		c-17.2,0-31.4-14.2-31.4-31.4c0-16.5,12.7-30,29.2-30.7l0,0c9.7-0.7,19.5,5.2,24,13.5c4.5,9.7,3,21-4.5,29.2
		C131,154.9,134,157.2,136.3,158.7L136.3,158.7z M201.4,160.2c-16.5,37.4-50.2,56.9-86.1,56.2c-69.6-3.7-89.9-83.1-43.4-112.3
		l2.2,2.2c-0.7,0.7-3.7,3-7.5,12c-5.2,10.5-6.7,20.2-6,27c3.7,56.2,81.6,67.4,108.6,12C202.9,80.8,112.3,3.7,31.4,62.8L30,60.6
		c21-32.9,62.1-47.9,101.8-38.2C192.4,38.1,225.4,101,201.4,160.2z"/>
	<path d="M338.5,73.3v52.4c0,21-12.7,36.7-35.9,36.7s-35.9-15.7-35.9-36.7V73.3h18.7v50.9c0,12.7,6,20.2,17.2,20.2
		c11.2,0,17.2-7.5,17.2-20.2V73.3H338.5z M409.6,136.2c0,15-12,26.2-31.4,26.2h-30.7V74.1h29.2c17.2,0,28.5,8.2,28.5,21
		c0,9.7-4.5,15.7-11.2,18.7C402.8,117.5,409.6,124.2,409.6,136.2L409.6,136.2z M366.9,91.3V110h9.7c6,0,9.7-3.7,9.7-9
		c0-5.2-3.7-9-9.7-9L366.9,91.3L366.9,91.3z M377.4,145.2c8.2,0,12.7-3.7,12.7-11.2c0-7.5-4.5-11.2-12.7-11.2h-10.5v21.7
		L377.4,145.2L377.4,145.2z M417.1,74.1h18.7v87.6h-18.7V74.1z M481.5,110c15,5.2,22.5,12,22.5,25.5c0,18-14.2,28.5-30.7,28.5
		c-15,0-27-6.7-31.4-19.5l15-11.2c3,8.2,9.7,12.7,17.2,12.7c6,0,10.5-3.7,10.5-9c0-5.2-3.7-8.2-15.7-12.7c-13.5-5.2-24-12-24-26.2
		s12-24.7,28.5-24.7c13.5,0,24,5.2,28.5,15.7l-15,10.5c-3-6.7-7.5-10.5-14.2-10.5c-6,0-9.7,3-9.7,7.5
		C463.5,101.8,468.7,105.5,481.5,110z M599,118.2c0,25.5-18.7,44.9-44.9,44.9c-27,0-44.9-19.5-44.9-41.9c0-15,6-26.2,14.2-32.9l-3-3
		c6.7-6.7,18.7-12,32.9-12C580.3,72.6,599,92.8,599,118.2L599,118.2z M579.6,118.2c0-15.7-9.7-27-25.5-27c-9,0-15.7,3.7-19.5,7.5
		l3,3c-4.5,3.7-9,9-9,18.7c0,13.5,9.7,24.7,25.5,24.7C569.8,145.2,579.6,134,579.6,118.2L579.6,118.2z M626,92.8V113h37.4v14.2H626
		v34.4h-19.5V74.1h59.9v18H626V92.8z M742.8,92.8h-24.7v69.6h-18.7V92.8h-25.5V74.1h68.1v18.7H742.8z"/>
</g>
</svg>
